<?xml version="1.0" encoding="UTF-8"?>
<svg version="1.1" viewBox="0 0 24 24" xmlns="http://www.w3.org/2000/svg" xmlns:xlink="http://www.w3.org/1999/xlink">
    <!--Generated by IJSVG (https://github.com/curthard89/IJSVG)-->
    <g fill="#fff">
        <path d="M9.30861,0h-6.88381l-8.80866e-08,9.82894e-11c-1.33861,0.00149368 -2.42338,1.08632 -2.4248,2.42493v6.88374l-8.86871e-08,-8.42083e-05c0.00138656,1.33859 1.08613,2.4234 2.42472,2.42488h6.88389l1.04007e-07,-1.11346e-10c1.33859,-0.00143306 2.42337,-1.08621 2.4248,-2.4248v-6.88375l7.7854e-08,7.4072e-05c-0.00138653,-1.33861 -1.08612,-2.42346 -2.42473,-2.42499Zm-3.44189,9.37756l-1.53459e-07,-3.55271e-15c-1.93893,-8.47532e-08 -3.51074,-1.57181 -3.51074,-3.51074c8.47532e-08,-1.93893 1.57181,-3.51074 3.51074,-3.51074c1.93893,8.47532e-08 3.51074,1.57181 3.51074,3.51074l8.89045e-08,-8.05809e-05c-0.00211601,1.93804 -1.57264,3.50863 -3.51068,3.51082Zm3.833,-6.16406l3.3225e-08,-2.1565e-12c-0.510654,3.31544e-05 -0.924647,-0.413906 -0.92468,-0.92456c-3.31544e-05,-0.510654 0.413906,-0.924647 0.92456,-0.92468c0.510654,-3.31544e-05 0.924647,0.413906 0.92468,0.92456c2.59693e-09,3.99987e-05 2.59837e-09,7.99974e-05 4.31299e-12,0.000119996l1.46284e-08,-1.21639e-05c-0.000610426,0.510372 -0.414195,0.923959 -0.924568,0.924572Z" transform="translate(6.17139, 5.83533)"></path>
        <path d="M4.3594,0.943323c0.943323,0.943323 0.943323,2.47275 0,3.41608c-0.943323,0.943323 -2.47275,0.943323 -3.41608,0c-0.943323,-0.943323 -0.943323,-2.47275 0,-3.41608c0.943323,-0.943323 2.47275,-0.943323 3.41608,0" transform="translate(9.38673, 9.05079)"></path>
        <path d="M2.14939e-13,0.0141766c0,0.01538 0.0282,0.01538 0.0282,0l4.31481e-10,-2.39754e-08c0.000138227,-0.00768104 -0.00597643,-0.0140198 -0.0136575,-0.014158c-0.000114174,-2.05466e-06 -0.000228368,-2.70329e-06 -0.000342558,-1.94576e-06l-3.04796e-10,-6.46594e-13c-0.00782586,-1.65571e-05 -0.0141834,0.00631413 -0.0141999,0.01414c-1.41124e-08,6.67035e-06 -2.35147e-08,1.33407e-05 -2.82071e-08,2.00111e-05Z" transform="translate(15.8569, 8.11009)"></path>
        <path d="M12,0l-5.24537e-07,1.24345e-14c-6.62742,2.89694e-07 -12,5.37258 -12,12c2.89694e-07,6.62742 5.37258,12 12,12c6.62742,-2.89694e-07 12,-5.37258 12,-12l1.42109e-14,5.24537e-07c0,-6.62742 -5.37258,-12 -12,-12Zm7,15.144l-4.29396e-08,3.76737e-05c-0.00222512,1.94313 -1.57691,3.51778 -3.52004,3.51996h-6.88377l-3.08488e-08,-3.49942e-11c-1.94313,-0.00220436 -3.5178,-1.57687 -3.52,-3.52v-6.88375l4.26e-08,-3.73771e-05c0.00222496,-1.94313 1.57691,-3.51778 3.52004,-3.51996h6.88377l1.42864e-07,1.62073e-10c1.94313,0.00220442 3.5178,1.57687 3.52,3.52Z" transform="translate(-2.89694e-07, 0)"></path>
    </g>
</svg>
