<?xml version="1.0" encoding="UTF-8"?>
<svg version="1.1" viewBox="0 0 24 24" xmlns="http://www.w3.org/2000/svg" xmlns:xlink="http://www.w3.org/1999/xlink">
    <!--Generated by IJSVG (https://github.com/curthard89/IJSVG)-->
    <g fill="#fff">
        <path d="M12,0l-5.24537e-07,1.24345e-14c-6.62742,2.89694e-07 -12,5.37258 -12,12c2.89694e-07,6.62742 5.37258,12 12,12c6.62742,-2.89694e-07 12,-5.37258 12,-12l1.06581e-14,5.24537e-07c0,-6.62742 -5.37258,-12 -12,-12Zm8.47217,14.4971l-1.35474,1.35474l4.25186e-08,-4.25138e-08c-0.189723,0.189701 -0.446087,0.297722 -0.71436,0.301h-6.62255l-1.30387e-08,-4.6624e-10c-0.352344,-0.0125991 -0.68718,-0.156758 -0.93848,-0.40405l-2.39746,-2.39744l2.43629e-08,2.47564e-08c-0.191932,-0.195032 -0.45366,-0.305559 -0.72729,-0.30713v-0.000490001h-4.37793v-5.19653h5.17264v0.00012l0.00366,-0.00012l2.37405e-07,-9.72216e-10c1.12566,-0.00460976 2.20713,0.437783 3.00684,1.23l1.86133,1.86133l-1.47607,1.4762l-1.82593,-1.82581l5.40327e-08,5.48888e-08c-0.411694,-0.418216 -0.973977,-0.653756 -1.56083,-0.65383v-0.00025h-3.094v1.02149h2.9873v0.00012l0.00378,-0.00012l-1.91741e-08,-5.87335e-11c0.364197,0.0011156 0.714217,0.141282 0.97852,0.39185l2.44788,2.44775l2.62779e-08,2.59875e-08c0.174888,0.172955 0.410774,0.270203 0.65674,0.27075h5.45532l-3.85046,-3.85034l1.4762,-1.4762l4.89063,4.89062l-6.07099e-09,-5.84658e-09c0.11609,0.111798 0.183527,0.264786 0.18774,0.4259l4.58236e-09,-5.38979e-06c-0.000140471,0.166094 -0.0687152,0.324792 -0.189576,0.438722Z" transform="translate(-2.89694e-07, 0)"></path>
    </g>
</svg>
