<?xml version="1.0" encoding="UTF-8"?>
<svg version="1.1" viewBox="0 0 24 24" xmlns="http://www.w3.org/2000/svg" xmlns:xlink="http://www.w3.org/1999/xlink">
    <!--Generated by IJSVG (https://github.com/curthard89/IJSVG)-->
    <g fill="#fff">
        <path d="M12,0l-5.24537e-07,1.24345e-14c-6.62742,2.89694e-07 -12,5.37258 -12,12c2.89694e-07,6.62742 5.37258,12 12,12c6.62742,-2.89694e-07 12,-5.37258 12,-12l2.6061e-07,0.000236557c-0.00723268,-6.62436 -5.3754,-11.9927 -11.9998,-12.0002Zm-7,15.165v0c0,0.276142 -0.223858,0.5 -0.5,0.5c-0.276142,0 -0.5,-0.223858 -0.5,-0.5v-2.601l5.32907e-15,7.54979e-08c-4.16963e-08,-0.276142 0.223858,-0.5 0.5,-0.5c0.276142,-4.16963e-08 0.5,0.223858 0.5,0.5c0,0 0,0 0,0Zm2,-0.134v0c0,0.276142 -0.223858,0.5 -0.5,0.5c-0.276142,0 -0.5,-0.223858 -0.5,-0.5v-3.591l5.32907e-15,7.54979e-08c-4.16963e-08,-0.276142 0.223858,-0.5 0.5,-0.5c0.276142,-4.16963e-08 0.5,0.223858 0.5,0.5c0,0 0,0 0,0Zm2,0.363v0c0,0.276142 -0.223858,0.5 -0.5,0.5c-0.276142,0 -0.5,-0.223858 -0.5,-0.5v-4.894l5.32907e-15,7.54979e-08c-4.16963e-08,-0.276142 0.223858,-0.5 0.5,-0.5c0.276142,-4.16963e-08 0.5,0.223858 0.5,0.5c0,0 0,0 0,0Zm2,0.106v0c0,0.276142 -0.223858,0.5 -0.5,0.5c-0.276142,0 -0.5,-0.223858 -0.5,-0.5v-5.874l5.32907e-15,7.54979e-08c-4.16963e-08,-0.276142 0.223858,-0.5 0.5,-0.5c0.276142,-4.16963e-08 0.5,0.223858 0.5,0.5c0,0 0,0 0,0Zm6.655,0.5h-4.956l-2.67018e-08,-1.31273e-09c-0.38298,-0.0188283 -0.687231,-0.328738 -0.699,-0.712v-5.863l-1.92359e-08,-1.05365e-06c-0.00570434,-0.312468 0.195585,-0.591175 0.494001,-0.683999l1.34653e-07,-5.92374e-08c0.379815,-0.167091 0.790057,-0.253905 1.205,-0.255l8.01934e-08,-3.82657e-10c1.72623,-0.00823701 3.23321,1.16758 3.645,2.844l-1.76083e-07,2.39439e-08c0.103403,-0.0140609 0.207643,-0.0210771 0.311998,-0.021l5.92333e-08,1.26157e-11c1.29538,0.000275895 2.34528,1.05062 2.345,2.346c-0.000275895,1.29538 -1.05062,2.34528 -2.346,2.345Z" transform="translate(-2.89694e-07, 0)"></path>
    </g>
</svg>
