<?xml version="1.0" encoding="UTF-8"?>
<svg version="1.1" viewBox="0 0 24 24" xmlns="http://www.w3.org/2000/svg" xmlns:xlink="http://www.w3.org/1999/xlink">
    <!--Generated by IJSVG (https://github.com/curthard89/IJSVG)-->
    <g fill="#fff">
        <path d="M12,0l-5.24537e-07,1.42109e-14c-6.62742,2.89694e-07 -12,5.37258 -12,12c2.89694e-07,6.62742 5.37258,12 12,12c6.62742,-2.89694e-07 12,-5.37258 12,-12l3.05039e-07,0.000276469c-0.00723267,-6.62436 -5.37537,-11.9927 -11.9997,-12.0003Zm5.069,16.5535l8.92866e-09,-1.48436e-08c-0.171089,0.28443 -0.527309,0.39679 -0.83063,0.262l-7.16714e-08,-3.42429e-08c-0.0607603,-0.0290299 -0.119744,-0.0616405 -0.17664,-0.09766l2.7498e-07,1.61795e-07c-1.12304,-0.660782 -2.36357,-1.09748 -3.65289,-1.28589l-9.40496e-08,-1.43025e-08c-0.794949,-0.120891 -1.59965,-0.165324 -2.40308,-0.13269l4.49953e-07,-1.92741e-08c-1.03879,0.0444975 -2.07152,0.181886 -3.08582,0.41052l5.68175e-08,-1.41589e-08c-0.102502,0.0255435 -0.207369,0.0404325 -0.31293,0.04443l1.10049e-08,-1.46507e-10c-0.311091,0.00414151 -0.579807,-0.216708 -0.636,-0.52271l-2.40978e-08,-1.14399e-07c-0.0651861,-0.309458 0.101071,-0.621082 0.39441,-0.73926l9.54751e-08,-3.60212e-08c0.0630215,-0.023777 0.127872,-0.0423916 0.19391,-0.0556599l-1.27197e-07,2.91904e-08c0.830269,-0.190539 1.67258,-0.32415 2.52106,-0.3999c0.47424,-0.04 0.95056,-0.05591 1.4259,-0.08252l1.01272e-07,-6.77929e-11c1.39881,-0.000936371 2.7889,0.220241 4.11835,0.65527l-1.35614e-07,-4.55671e-08c0.735045,0.24698 1.44176,0.571393 2.10822,0.96777l4.20683e-08,2.3762e-08c0.0586777,0.0331437 0.115435,0.0695783 0.169999,0.109129l6.34911e-09,4.81659e-09c0.268972,0.204049 0.340646,0.578156 0.166139,0.86717Zm1.3089,-2.91089l-1.96893e-08,3.21682e-08c-0.238077,0.388969 -0.745145,0.513394 -1.13623,0.27881c-0.23047,-0.13 -0.45825,-0.2655 -0.69379,-0.3855l6.78619e-07,3.38935e-07c-1.07786,-0.538335 -2.22723,-0.919602 -3.41315,-1.1322l7.66125e-07,1.43408e-07c-0.929736,-0.174034 -1.87357,-0.26174 -2.81946,-0.262l3.19975e-07,7.88496e-10c-1.25058,-0.00308174 -2.49523,0.171808 -3.69653,0.519409l3.93488e-09,-1.29914e-09c-0.193931,0.0640284 -0.404122,0.0584162 -0.59436,-0.01587l4.84045e-08,1.97317e-08c-0.317296,-0.129343 -0.521571,-0.441396 -0.51318,-0.78394l-6.1296e-09,6.03583e-07c0.00354579,-0.349167 0.231525,-0.656339 0.564699,-0.76086c0.34473,-0.10535 0.69458,-0.19653 1.04651,-0.27466l-4.51404e-07,9.82935e-08c0.86541,-0.188444 1.7461,-0.298148 2.6313,-0.32777l-1.34351e-08,5.48571e-10c1.8939,-0.07733 3.78664,0.179014 5.59174,0.75732l1.8115e-07,5.73405e-08c0.91853,0.290748 1.80104,0.684944 2.63055,1.175c0.04138,0.02454 0.0824,0.04968 0.12347,0.07471l3.11849e-08,1.91943e-08c0.388468,0.239102 0.51254,0.746077 0.278393,1.13755Zm0.12646,-3.02637l3.61836e-07,2.07323e-07c-0.459206,-0.263114 -0.935486,-0.495237 -1.42566,-0.694818l-6.3324e-07,-2.48441e-07c-0.97683,-0.383242 -1.99078,-0.664122 -3.02557,-0.83813l1.81353e-06,3.18939e-07c-0.720085,-0.126639 -1.44685,-0.211823 -2.1767,-0.25513l-5.59802e-07,-3.42205e-08c-0.758811,-0.0463858 -1.51962,-0.0502985 -2.27887,-0.0117199l-3.03096e-07,1.34659e-08c-0.869937,0.0386494 -1.73535,0.147334 -2.58782,0.324999c-0.3147,0.068 -0.62567,0.15369 -0.93683,0.23682l-3.22752e-08,9.38439e-09c-0.185728,0.0540024 -0.382897,0.0546954 -0.569,0.00199998l1.78395e-08,5.20039e-09c-0.415871,-0.121231 -0.705261,-0.497933 -0.71521,-0.931l1.57458e-09,4.71385e-08c-0.014324,-0.428819 0.254136,-0.816331 0.66064,-0.95361c0.3009,-0.09924 0.60974,-0.17712 0.9187,-0.24866l-6.49304e-07,1.45778e-07c0.765094,-0.171775 1.541,-0.291238 2.32233,-0.357561l-4.25693e-07,3.85809e-08c0.829032,-0.0751359 1.66182,-0.100612 2.49389,-0.0762904l-7.43249e-07,-1.27167e-08c2.04286,0.0349526 4.06835,0.382358 6.0061,1.03015l-4.53378e-07,-1.54516e-07c0.792891,0.270226 1.55736,0.617593 2.28241,1.03711l1.97331e-08,1.06029e-08c0.253917,0.136433 0.435878,0.376628 0.49847,0.658c0.01569,0.06995 0.01947,0.14258 0.02875,0.21387l4.00027e-08,4.5466e-06c0.00482065,0.548044 -0.435549,0.99623 -0.983593,1.00105c-0.179962,0.00158297 -0.356967,-0.0458032 -0.512068,-0.137086Z" transform="translate(-2.89694e-07, 0)"></path>
    </g>
</svg>
